# xmcd
# Copyright (C) 1995-1998 Ti Kan
#
# Track frame offsets:
#       150
#       16039
#       38509
#       92522
#       120669
#       157534
#       194345
#       227653
#       244184
#
# Disc length: 3559 seconds
#
# Revision: 0
# Processed by: cddbd v1.5.2PL0 Copyright (c) Steve Scherf et al.
# Submitted via: CD-Import v1.0
#
DISCID=570de509
DTITLE=Ephraim Kishon - Kein Applaus Für Podmanitzki Vol. 2
DYEAR=10
DGENRE=
TTITLE0=1 Probeweise
TTITLE1=2 Gratis Um Jeden Preis
TTITLE2=3 Aasgeier
TTITLE3=4 Anhaltende Ovationen
TTITLE4=5 Glückwunschologie
TTITLE5=6 Wer Kümmert Sich Um Kritiken
TTITLE6=7 Der Erfolgsmesser
TTITLE7=8 I. L. Kunstetters Ende
TTITLE8=9 Dialog Unter Fachleuten
EXTD=
EXTT0=
EXTT1=
EXTT2=
EXTT3=
EXTT4=
EXTT5=
EXTT6=
EXTT7=
EXTT8=
PLAYORDER=
